<?xml version="1.0" standalone="no"?>
<!DOCTYPE svg PUBLIC "-//W3C//DTD SVG 20010904//EN"
 "http://www.w3.org/TR/2001/REC-SVG-20010904/DTD/svg10.dtd">
<svg version="1.0" xmlns="http://www.w3.org/2000/svg"
 width="267.000000pt" height="267.000000pt" viewBox="0 0 267.000000 267.000000"
 preserveAspectRatio="xMidYMid meet">
<metadata>
Created by potrace 1.11, written by Peter Selinger 2001-2013
</metadata>
<g transform="translate(0.000000,267.000000) scale(0.100000,-0.100000)"
fill="#000000" stroke="none">
<path d="M1870 2389 c-78 -13 -94 -17 -153 -39 -63 -24 -72 -35 -16 -20 98 25
163 13 175 -35 8 -33 -41 -155 -141 -351 -277 -545 -710 -1034 -1195 -1349
-244 -159 -387 -213 -422 -161 -20 29 7 130 53 200 13 19 2 11 -26 -19 -98
-106 -155 -214 -141 -269 26 -106 274 -73 555 75 230 120 430 277 701 549 129
129 192 196 270 289 25 29 50 58 55 65 205 232 466 640 519 810 52 163 -59
284 -234 255z"/>
<path d="M1625 2310 c-3 -6 1 -7 9 -4 18 7 21 14 7 14 -6 0 -13 -4 -16 -10z"/>
<path d="M1719 2001 c-20 -21 -72 -59 -115 -85 -107 -63 -196 -141 -258 -223
-57 -75 -110 -174 -121 -222 -3 -17 -10 -33 -15 -36 -6 -4 -79 155 -180 397
-22 53 -39 80 -54 84 -35 12 -166 11 -181 0 -8 -6 -50 -99 -94 -206 -128 -315
-228 -545 -305 -702 -40 -81 -66 -142 -57 -135 8 6 27 22 41 34 14 11 63 54
110 94 47 39 112 95 145 123 120 102 127 112 190 269 32 81 62 144 66 140 6
-6 77 -180 176 -430 4 -10 -33 -13 -166 -13 -188 0 -200 4 -167 55 49 76 36
67 -100 -70 -312 -313 -411 -450 -417 -576 -2 -41 -1 -44 23 -41 34 5 189 84
283 144 42 28 77 51 77 53 0 2 -9 1 -20 -2 -33 -9 -33 20 1 101 l32 76 114 0
114 0 91 87 c50 49 96 93 102 99 74 71 260 289 337 394 109 148 405 630 387
630 -1 0 -19 -17 -39 -39z"/>
<path d="M2030 1907 c-18 -34 -58 -102 -87 -150 -42 -70 -48 -85 -31 -75 17 9
113 13 363 14 187 1 346 2 353 3 16 1 32 43 37 98 5 46 -19 122 -39 124 -6 1
-128 3 -271 4 -143 1 -264 3 -268 4 -4 0 -11 10 -15 21 -6 17 -13 10 -42 -43z"/>
<path d="M1335 1013 c-153 -157 -162 -168 -145 -182 10 -9 46 -88 80 -176 34
-88 66 -167 70 -175 7 -13 32 -15 142 -15 150 1 148 0 114 78 l-17 38 63 -35
c149 -82 125 -79 573 -81 220 -1 406 1 413 3 16 5 30 40 38 89 6 40 -13 130
-30 140 -6 4 -182 8 -391 9 -366 1 -382 2 -437 23 -180 70 -294 220 -301 396
-1 30 -4 55 -6 55 -2 0 -77 -75 -166 -167z"/>
</g>
</svg>
